<?xml version="1.0" encoding="UTF-8" standalone="no"?> <svg height="574pt" viewBox="-44 -18 574 574.67422" width="574pt" xmlns="http://www.w3.org/2000/svg"><path d="m472.335938 278.757812c-6.210938 0-11.25 5.039063-11.25 11.25v51.25h-440v-138.75c0-6.210937-5.039063-11.25-11.25-11.25-6.210938 0-11.25 5.039063-11.25 11.25v325c0 6.210938 5.039062 11.25 11.25 11.25 6.210937 0 11.25-5.039062 11.25-11.25v-51.25h440v51.25c0 6.210938 5.039062 11.25 11.25 11.25 6.210937 0 11.25-5.039062 11.25-11.25v-237.5c0-6.210937-5.039063-11.25-11.25-11.25zm-11.25 85v52.5h-440v-52.5zm-440 90v-15h440v15zm0 0"/><path d="m41.976562 330.167969h116.246094c6.210938 0 11.25-5.039063 11.25-11.25-.039062-32.519531-26.394531-58.871094-58.914062-58.910157h-68.582032c-6.210937 0-11.25 5.039063-11.25 11.25v47.660157c0 6.210937 5.039063 11.25 11.25 11.25zm11.25-47.660157h57.332032c15.773437.019532 29.742187 10.171876 34.636718 25.160157h-91.96875zm0 0"/><path d="m365.480469 189.039062c44.199219 0 82.496093-30.636718 92.203125-73.761718 9.707031-43.121094-11.773438-87.214844-51.714844-106.152344-39.933594-18.941406-87.667969-7.671875-114.914062 27.132812-28.820313 36.820313-26.386719 89.179688 5.722656 123.167969 17.878906 18.863281 42.714844 29.566407 68.703125 29.613281zm-56.71875-138.898437c21.679687-27.710937 60.210937-35.703125 91.125-18.898437 30.917969 16.808593 45.160156 53.488281 33.695312 86.753906-11.464843 33.265625-45.289062 53.378906-79.988281 47.5625-34.707031-5.808594-60.128906-35.847656-60.132812-71.035156-.03125-16.09375 5.359374-31.726563 15.300781-44.382813zm0 0"/><path d="m351.984375 111.324219 23.179687 14.851562c3.382813 2.195313 7.6875 2.410157 11.273438.566407 3.589844-1.847657 5.914062-5.476563 6.089844-9.507813.179687-4.027344-1.816406-7.847656-5.222656-10.003906l-18.003907-11.53125v-40.003907c0-6.214843-5.035156-11.25-11.25-11.25-6.210937 0-11.25 5.035157-11.25 11.25v46.15625c0 3.839844 1.957031 7.410157 5.183594 9.472657zm0 0"/></svg>