<?xml version="1.0" encoding="iso-8859-1"?>
<!-- Generator: Adobe Illustrator 19.0.0, SVG Export Plug-In . SVG Version: 6.00 Build 0)  -->
<svg version="1.1" id="Capa_1" xmlns="http://www.w3.org/2000/svg" xmlns:xlink="http://www.w3.org/1999/xlink" x="0px" y="0px"
	 viewBox="0 0 512 512" style="enable-background:new 0 0 512 512;" xml:space="preserve">
<g>
	<g>
		<path d="M502,492H188.044v-36.733c4.096,0.578,9.546,1.104,15.898,1.104c18.899,0,45.63-4.649,67.345-26.364
			c36.756-36.757,24.185-87.96,23.444-90.819c-0.063-0.244-0.135-0.487-0.216-0.728c-1.074-3.17-3.662-5.593-6.896-6.455
			c-2.176-0.58-53.719-13.775-90.915,23.418c-3.26,3.26-6.127,6.634-8.66,10.077V209.523c5.153,0.738,12.087,1.418,20.172,1.418
			c23.621,0,57.01-5.808,84.118-32.916c46.443-46.444,29.951-110.857,29.227-113.576c-0.923-3.461-3.626-6.165-7.088-7.087
			c-2.717-0.724-67.13-17.217-113.575,29.227c-28.744,28.744-33.535,64.536-32.854,88.271v77.82
			c-3.797-5.611-8.268-11.104-13.528-16.364c-47.402-47.4-113.146-30.567-115.92-29.827c-3.462,0.922-6.165,3.626-7.088,7.087
			c-0.739,2.775-17.573,68.52,29.827,115.92c27.67,27.67,61.744,33.593,85.854,33.593c8.39,0,15.569-0.718,20.855-1.486V492H56
			c-5.522,0-10,4.477-10,10s4.478,10,10,10h446c5.522,0,10-4.477,10-10S507.522,492,502,492z M210.847,369.566
			c22.721-22.721,52.894-21.268,65.615-19.389c1.781,12.738,3.129,43.242-19.317,65.688c-16.522,16.523-37.501,20.259-52.561,20.406
			l22.802-22.802c3.905-3.905,3.905-10.237,0-14.143c-3.906-3.904-10.236-3.904-14.143,0l-22.875,22.875
			C190.477,407.183,194.196,386.217,210.847,369.566z M215.04,100.732c30.801-30.802,72.951-27.636,88.346-25.196
			c2.443,15.419,5.598,57.556-25.194,88.348c-24.356,24.356-55.956,27.649-75.812,26.803l39.003-39.002
			c3.905-3.905,3.905-10.237,0-14.142c-3.905-3.905-10.235-3.905-14.143,0l-39.06,39.059
			C187.288,156.791,190.542,125.23,215.04,100.732z M167.823,328.661l-33.874-33.874c-3.906-3.905-10.236-3.905-14.143,0
			c-3.905,3.905-3.905,10.237,0,14.143l33.93,33.93c-20.266,0.992-52.941-2.188-78.258-27.506
			c-31.69-31.69-28.303-75.091-25.797-90.722c15.624-2.554,58.854-6.013,90.692,25.827
			C165.548,275.634,168.768,308.348,167.823,328.661z"/>
	</g>
</g>
<g>
	<g>
		<path d="M17.069,494.93C15.21,493.07,12.63,492,10,492s-5.21,1.07-7.07,2.93C1.069,496.79,0,499.37,0,502s1.069,5.21,2.93,7.07
			C4.791,510.93,7.37,512,10,512s5.21-1.07,7.069-2.93C18.93,507.21,20,504.63,20,502S18.93,496.79,17.069,494.93z"/>
	</g>
</g>
<g>
	<g>
		<path d="M271.91,107.02c-1.87-1.86-4.44-2.93-7.07-2.93c-2.64,0-5.21,1.07-7.08,2.93c-1.86,1.86-2.92,4.44-2.92,7.07
			c0,2.63,1.06,5.21,2.92,7.07c1.87,1.86,4.44,2.93,7.08,2.93c2.63,0,5.2-1.07,7.07-2.93c1.859-1.86,2.93-4.44,2.93-7.07
			C274.84,111.46,273.77,108.88,271.91,107.02z"/>
	</g>
</g>
<g>
	<g>
		<path d="M108.477,0c-20.953,0-38,17.047-38,38c0,17.492,11.884,32.253,28,36.655v62.011c0,5.523,4.478,10,10,10
			c5.522,0,10-4.477,10-10V74.655c16.116-4.402,28-19.163,28-36.655C146.477,17.047,129.43,0,108.477,0z M108.477,56
			c-9.925,0-18-8.075-18-18s8.075-18,18-18s18,8.075,18,18S118.402,56,108.477,56z"/>
	</g>
</g>
<g>
	<g>
		<path d="M474,358c-17.492,0-32.253,11.884-36.655,28h-17.678c-5.522,0-10,4.477-10,10s4.478,10,10,10h17.678
			c4.402,16.116,19.163,28,36.655,28c20.953,0,38-17.047,38-38S494.953,358,474,358z M474,414c-9.925,0-18-8.075-18-18
			s8.075-18,18-18s18,8.075,18,18S483.925,414,474,414z"/>
	</g>
</g>
<g>
	<g>
		<path d="M108.477,163.613c-5.522,0-10,4.477-10,10v0.765c0,5.523,4.478,10,10,10c5.522,0,10-4.477,10-10v-0.765
			C118.477,168.09,113.999,163.613,108.477,163.613z"/>
	</g>
</g>
<g>
	<g>
		<path d="M474,104.98c-17.492,0-32.253,11.884-36.655,28h-36.678c-5.522,0-10,4.477-10,10s4.478,10,10,10h36.678
			c4.402,16.116,19.163,28,36.655,28c20.953,0,38-17.047,38-38S494.953,104.98,474,104.98z M474,160.98c-9.925,0-18-8.075-18-18
			c0-9.925,8.075-18,18-18s18,8.075,18,18C492,152.905,483.925,160.98,474,160.98z"/>
	</g>
</g>
<g>
	<g>
		<path d="M363.333,132.98h-1c-5.522,0-10,4.477-10,10s4.478,10,10,10h1c5.522,0,10-4.477,10-10S368.855,132.98,363.333,132.98z"/>
	</g>
</g>
<g>
	<g>
		<path d="M384.5,386h-26.333c-5.522,0-10,4.477-10,10s4.478,10,10,10H384.5c5.522,0,10-4.477,10-10S390.022,386,384.5,386z"/>
	</g>
</g>
<g>
	<g>
		<path d="M327.29,388.93c-1.851-1.86-4.431-2.93-7.061-2.93c-2.639,0-5.219,1.07-7.08,2.93c-1.859,1.86-2.92,4.44-2.92,7.07
			s1.061,5.21,2.92,7.07c1.86,1.86,4.44,2.93,7.08,2.93c2.63,0,5.21-1.07,7.061-2.93c1.87-1.86,2.939-4.44,2.939-7.07
			S329.16,390.79,327.29,388.93z"/>
	</g>
</g>
<g>
</g>
<g>
</g>
<g>
</g>
<g>
</g>
<g>
</g>
<g>
</g>
<g>
</g>
<g>
</g>
<g>
</g>
<g>
</g>
<g>
</g>
<g>
</g>
<g>
</g>
<g>
</g>
<g>
</g>
</svg>
