<?xml version="1.0" encoding="iso-8859-1"?>
<!-- Generator: Adobe Illustrator 19.0.0, SVG Export Plug-In . SVG Version: 6.00 Build 0)  -->
<svg version="1.1" id="Capa_1" xmlns="http://www.w3.org/2000/svg" xmlns:xlink="http://www.w3.org/1999/xlink" x="0px" y="0px"
	 viewBox="0 0 512 512" style="enable-background:new 0 0 512 512;" xml:space="preserve">
<g>
	<path style="fill:#AAC4DA;" d="M448,213.333v64c0,5.891-4.776,10.667-10.667,10.667H416v-85.333h21.333
		C443.224,202.667,448,207.442,448,213.333z"/>
	<path style="fill:#AAC4DA;" d="M448,96v64c0,5.891-4.776,10.667-10.667,10.667H416V85.333h21.333C443.224,85.333,448,90.109,448,96
		z"/>
	<path style="fill:#AAC4DA;" d="M96,149.333v85.333H74.667C68.776,234.667,64,229.891,64,224v-64
		c0-5.891,4.776-10.667,10.667-10.667H96z"/>
</g>
<path style="fill:#D9EEF7;" d="M416,202.667v256c0,23.564-19.102,42.667-42.667,42.667H138.667
	c-23.564,0-42.667-19.103-42.667-42.667V53.333c0-23.564,19.103-42.667,42.667-42.667h234.667c23.564,0,42.667,19.103,42.667,42.667
	V202.667z"/>
<path style="fill:#AAC4DA;" d="M149.333,362.667h213.333v96H149.333V362.667z"/>
<g>
	<path style="fill:#F2F2F2;" d="M320,266.667h42.667v42.667H320V266.667z"/>
	<path style="fill:#F2F2F2;" d="M234.667,266.667h42.667v42.667h-42.667V266.667z"/>
	<path style="fill:#F2F2F2;" d="M149.333,266.667H192v42.667h-42.667V266.667z"/>
</g>
<path style="fill:#FF7260;" d="M362.667,173.973V224H149.333v-53.333c-0.001-58.91,47.755-106.667,106.665-106.668
	c5.284,0,10.562,0.393,15.788,1.175C324.792,74.019,363.4,120.24,362.667,173.973z"/>
<g>
	<path style="fill:#4C5B66;" d="M437.333,181.333c11.782,0,21.333-9.551,21.333-21.333V96c0-11.782-9.551-21.333-21.333-21.333
		h-10.667V53.333C426.631,23.893,402.774,0.035,373.333,0H138.667c-29.441,0.035-53.298,23.893-53.333,53.333v85.333H74.667
		c-11.782,0-21.333,9.551-21.333,21.333v64c0,11.782,9.551,21.333,21.333,21.333h10.667v213.333
		c0.035,29.441,23.893,53.298,53.333,53.333h234.667c29.441-0.035,53.298-23.893,53.333-53.333v-160h10.667
		c11.782,0,21.333-9.551,21.333-21.333v-64c0-11.782-9.551-21.333-21.333-21.333h-10.667v-10.667H437.333z M437.333,213.333v64H416
		c-5.891,0-10.667,4.776-10.667,10.667v170.667c0,17.673-14.327,32-32,32H138.667c-17.673,0-32-14.327-32-32v-224
		c0-5.891-4.776-10.667-10.667-10.667H74.667v-64h10.667v32h21.333V53.333c0-17.673,14.327-32,32-32h234.667
		c17.673,0,32,14.327,32,32v32C405.333,91.224,410.109,96,416,96h21.333v64h-10.667v-32h-21.333v117.333h21.333v-32H437.333z"/>
	<path style="fill:#4C5B66;" d="M149.333,320H192c5.891,0,10.667-4.776,10.667-10.667v-42.667c0-5.891-4.776-10.667-10.667-10.667
		h-42.667c-5.891,0-10.667,4.776-10.667,10.667v42.667C138.667,315.224,143.442,320,149.333,320z M160,277.333h21.333v21.333H160
		V277.333z"/>
	<path style="fill:#4C5B66;" d="M224,309.333c0,5.891,4.776,10.667,10.667,10.667h42.667c5.891,0,10.667-4.776,10.667-10.667
		v-42.667c0-5.891-4.776-10.667-10.667-10.667h-42.667c-5.891,0-10.667,4.776-10.667,10.667V309.333z M245.333,277.333h21.333
		v21.333h-21.333V277.333z"/>
	<path style="fill:#4C5B66;" d="M362.667,256H320c-5.891,0-10.667,4.776-10.667,10.667v42.667c0,5.891,4.776,10.667,10.667,10.667
		h42.667c5.891,0,10.667-4.776,10.667-10.667v-42.667C373.333,260.776,368.558,256,362.667,256z M352,298.667h-21.333v-21.333H352
		V298.667z"/>
	<path style="fill:#4C5B66;" d="M362.667,352H149.333c-5.891,0-10.667,4.776-10.667,10.667v96H160v-85.333h192v85.333h21.333v-96
		C373.333,356.776,368.558,352,362.667,352z"/>
	<path style="fill:#4C5B66;" d="M273.312,54.613c-64.092-9.561-123.8,34.645-133.361,98.737c-0.855,5.732-1.284,11.52-1.284,17.316
		V224c0,5.891,4.776,10.667,10.667,10.667H224v-21.333h-64v-42.667c-0.001-53.019,42.979-96.001,95.998-96.002
		c4.781,0,9.556,0.357,14.284,1.068c47.763,8.071,82.479,49.806,81.717,98.24v39.36h-64v21.333h74.667
		c5.891,0,10.667-4.776,10.667-10.667v-50.027C374.067,114.937,331.566,64.219,273.312,54.613L273.312,54.613z"/>
	<path style="fill:#4C5B66;" d="M181.333,394.667h149.333V416H181.333V394.667z"/>
	<path style="fill:#4C5B66;" d="M181.333,437.333h149.333v21.333H181.333V437.333z"/>
	<path style="fill:#4C5B66;" d="M266.667,234.667v-53.333c-0.001-2.829-1.125-5.541-3.125-7.541l-42.667-42.667l-15.083,15.083
		l39.541,39.541v48.917H266.667z"/>
</g>
<g>
</g>
<g>
</g>
<g>
</g>
<g>
</g>
<g>
</g>
<g>
</g>
<g>
</g>
<g>
</g>
<g>
</g>
<g>
</g>
<g>
</g>
<g>
</g>
<g>
</g>
<g>
</g>
<g>
</g>
</svg>
