<svg height="512" viewBox="0 0 128 128" width="512" xmlns="http://www.w3.org/2000/svg"><g><path d="m38.25 88.25h51.5v9h-51.5z" fill="#3ba9fd" transform="matrix(0 1 -1 0 156.75 28.75)"/><path d="m121.5 67.5v9h-115v-9l8.21-28.31 1-3.44 8.48-29.25h79.62l8.48 29.25 1 3.44z" fill="#3ba9fd"/><path d="m102.382 24.877a1.751 1.751 0 0 1 -1.68-1.263l-1.683-5.8a1.75 1.75 0 1 1 3.361-.975l1.683 5.8a1.752 1.752 0 0 1 -1.681 2.238z" fill="#0e8bce"/><path d="m24.192 115.5h79.615v6h-79.615z" fill="#3ba9fd"/><path d="m51.53 109.5h24.94v6h-24.94z" fill="#0e8bce"/><path d="m51.53 75.333h24.94v7.167h-24.94z" fill="#eaeaf0"/><path d="m112.86 39.25h-20.29l4.41 27.98a2.452 2.452 0 0 1 .02.27 1.749 1.749 0 0 1 -1.48 1.73 2.452 2.452 0 0 1 -.27.02 1.759 1.759 0 0 1 -1.73-1.48l-.04-.27-4.45-28.25h-23.28v37.25h-3.5v-37.25h-23.28l-4.45 28.25-.04.27a1.759 1.759 0 0 1 -1.73 1.48 2.452 2.452 0 0 1 -.27-.02 1.749 1.749 0 0 1 -1.48-1.73 2.452 2.452 0 0 1 .02-.27l4.41-27.98h-20.29a1.54 1.54 0 0 1 -.43-.06l1-3.44h20.27l4.62-29.25h3.51a2.452 2.452 0 0 1 -.02.27l-4.56 28.98h22.72v-29.25h3.5v29.25h22.72l-4.56-28.98a2.452 2.452 0 0 1 -.02-.27h3.51l4.62 29.25h20.27l1 3.44a1.54 1.54 0 0 1 -.43.06z" fill="#eaeaf0"/><path d="m6.5 67.5h115v9h-115z" fill="#0e8bce"/></g></svg>